<?xml version="1.0" encoding="utf-8"?>
<!DOCTYPE svg PUBLIC "-//W3C//DTD SVG 20010904//EN" "http://www.w3.org/TR/2001/REC-SVG-20010904/DTD/svg10.dtd">
<svg version="1.0" xmlns="http://www.w3.org/2000/svg" width="200px" height="200px" viewBox="0 0 800 378" preserveAspectRatio="xMidYMid meet">
 <g fill="#000000">
  <path d="M307.5 368.4 c-12 -1.8 -23.4 -5.4 -34.3 -10.9 -14.6 -7.3 -24.8 -15.2 -59.5 -45.9 -31.2 -27.6 -46.3 -38.4 -70.2 -50.2 -40.2 -19.7 -75.1 -24.5 -111.3 -15.4 -15.1 3.9 -17.3 3.8 -20.6 -0.1 -5.8 -6.9 -2.8 -11.1 17.9 -25.1 29.3 -19.8 58 -29.2 89 -29.2 22.1 0.1 31.9 2.4 85.5 20.4 48.1 16.1 62.5 19.8 80.5 20.7 24.8 1.3 40.2 -5.3 48.4 -20.6 3.5 -6.6 6 -16.7 6.2 -24.6 0 -2.7 0.4 -5.9 0.8 -7 0.6 -1.6 -0.3 -3.4 -4.5 -8.4 -6.5 -7.8 -11.6 -18 -14.6 -28.7 -1.8 -6.7 -2.1 -10.5 -2.1 -24.4 0 -14.7 0.3 -17.6 2.6 -26.5 9.9 -37.2 35.7 -62.3 71.5 -69.7 8.1 -1.7 12.2 -1.9 24.7 -1.5 17.2 0.6 23 1.9 35.5 7.9 6.7 3.3 10.3 5.9 16.7 12.3 l8.1 8.1 4.3 -5.9 c11.3 -15.5 29.7 -28.3 49.6 -34.4 8 -2.4 10.2 -2.7 24.8 -2.6 14.6 0 17.1 0.3 27.8 3.1 34 8.9 60.3 29.8 73.7 58.6 4.9 10.3 6.9 17.9 7.7 28.6 l0.6 8.5 8.6 0.1 c46.7 0.8 90.8 34 102 76.9 6 22.6 5 44.9 -2.9 68.7 -10.1 30.2 -32.8 57.1 -59.5 70.3 -18 8.8 -30.9 11.5 -55 11.6 -37.8 0 -69.9 -8.9 -87.7 -24.2 l-5.7 -5 -3.5 6.9 c-9 17.8 -22.4 30.1 -39.1 35.8 -10 3.3 -24.3 3.8 -34.5 1 -13.8 -3.7 -28.9 -13 -42.9 -26.4 -3.6 -3.4 -6.5 -6 -6.6 -5.9 0 0.1 -2.7 3.8 -6 8.1 -24.9 33.1 -78.6 52.3 -126 45z m27 -19.4 c27.6 -3.1 50.3 -11.2 67.1 -23.9 9.7 -7.2 16.4 -15.2 21 -25.1 2 -4.1 4.1 -8.5 4.7 -9.8 1.4 -2.9 7.3 -4.6 13 -3.8 4.1 0.6 5.1 1.4 13.1 10.6 20.3 23.2 41.7 34.8 57.9 31.1 17 -3.8 32.6 -21.9 39.7 -46.1 3.5 -11.8 3.7 -12 12.4 -12 8.9 0 10.6 1.2 13.5 8.9 3 8.1 6 11.8 13.3 16.7 17.6 11.8 40.7 17 72.2 16.2 16.1 -0.4 17.7 -0.6 26.6 -3.7 37.8 -12.9 64.7 -45.8 70 -85.8 1.4 -10.5 0 -22.6 -4.2 -35 -8.7 -26.4 -30.2 -47.6 -56.8 -56.1 -26.5 -8.4 -48 -4.6 -62.8 11.2 -10.2 10.9 -17.3 28.4 -17.4 42.5 -0.2 19.6 13.9 41.9 32 50.9 9.5 4.6 16.3 5.3 24.3 2.3 11.1 -4.2 20.3 -15.8 20.1 -25.5 -0.1 -7.8 -5.8 -16.5 -14.2 -21.5 -6.7 -4 -9.6 -2.5 -10.9 5.8 -1.2 7.6 -3 9.1 -11.2 9.1 -5.7 0 -7.2 -0.4 -9.6 -2.4 -2.7 -2.3 -2.8 -2.8 -2.7 -10.8 0.1 -12.8 4.6 -21.1 13.9 -26.1 3.4 -1.9 5.6 -2.2 14.6 -2.2 10.1 0 10.8 0.1 18.1 3.7 12.8 6.4 23 19.3 25.9 32.9 2.7 12.4 -0.3 28.9 -7 38.9 -10.2 15.2 -24.5 23.4 -42.6 24.7 -25.8 1.7 -53.7 -16 -66.6 -42.2 -5.7 -11.7 -6.9 -17.6 -6.9 -34.3 0 -15.9 1.5 -24.9 6 -37.4 7.1 -19.3 21.9 -35.5 39 -42.5 l5.5 -2.2 -0.3 -4.3 c-1.3 -18.1 -13.6 -40 -29.6 -52.7 -19.3 -15.4 -44.8 -23.8 -63.7 -21.2 -33 4.6 -59.5 27 -66.3 56.1 -6.3 26.8 9.1 53.4 36.3 62.7 12.1 4.1 24.8 2.2 36.7 -5.5 23.1 -14.9 22.8 -41.4 -0.4 -50.2 -6.5 -2.5 -10.9 -1.3 -16.7 4.4 -4.4 4.4 -6.9 10.1 -8.1 18.6 -1.1 8 -2.3 9 -11 9 -6.6 0 -7.8 -0.3 -9.9 -2.5 -2.3 -2.2 -2.5 -3.2 -2.5 -10.7 0 -14.7 3.6 -24.1 12.7 -33 9.1 -8.9 19.6 -12.5 33.8 -11.5 4.5 0.3 10.4 1.4 13.5 2.6 12.2 4.6 23.9 17.8 28.3 31.6 2.8 9 3 25.4 0.3 33 -5.9 16.6 -19.9 30 -37.9 36.2 -7.8 2.7 -9.1 2.8 -26.2 2.8 -17.6 0 -18.2 -0.1 -26.8 -3.1 -11.8 -4.3 -18.7 -8.6 -27.2 -16.9 -8.1 -7.9 -13 -16 -17.1 -28 -3.7 -10.9 -4.5 -30.9 -1.9 -45 l1.8 -9.5 -3.9 -5.7 c-15.7 -22.7 -48.7 -28 -80.4 -12.6 -8.1 3.9 -10.8 5.8 -18.5 13.7 -7.6 7.6 -9.9 10.7 -13.8 18.6 -11.3 22.9 -11.9 43.1 -2 62.9 9.9 19.7 31.2 31.4 49.9 27.5 18.2 -3.8 30.7 -16.4 30.6 -30.8 -0.1 -10.1 -6.4 -21.8 -13.3 -24.7 -2.9 -1.1 -3.7 -1 -8.7 1.6 -5.2 2.7 -11.2 9.2 -11.2 12 0 0.7 1.4 2.9 3 5 2.4 3 3 4.7 3 8.7 0 9.4 -4.5 13.5 -14.1 12.6 -6 -0.6 -10.5 -4.4 -14.4 -12.2 -2.1 -4.3 -2.5 -6.4 -2.5 -14.6 0 -8.4 0.3 -10.3 2.7 -15.1 3.6 -7.3 11.8 -15.1 20 -19.1 6.6 -3.2 7.1 -3.3 19.8 -3.3 11.5 0 13.5 0.3 17.6 2.3 12.2 6 19.8 18.9 21.9 37.2 1.2 10.8 -0.1 24.4 -3.1 32.5 -4.2 11.3 -14.6 21.9 -27.3 27.9 -13.9 6.6 -37.9 7.4 -56.3 2 -2.6 -0.7 -2.4 -1.3 -4.7 11.1 -3.5 18.3 -13.5 33.3 -26.7 39.9 -11.1 5.6 -19.7 7.1 -39.4 7 -29.6 0 -40.8 -2.7 -112.5 -27.2 -35.7 -12.2 -53.6 -15.1 -74.8 -11.8 -10.5 1.6 -26.6 5.6 -25.8 6.3 0.2 0.3 5.6 1.1 11.9 1.9 47.8 5.9 92.6 30 142.3 76.4 24.1 22.6 38.2 33.8 51.4 40.8 17.5 9.2 29.8 11.5 50.5 9.2z"/>
 </g>
 <g fill="#ffffff">
  <path d="M304 351.4 c-21.5 -4.6 -38.8 -16.1 -74.4 -49.4 -34.5 -32.2 -63.5 -51.7 -96.1 -64.5 -20.3 -8 -38.8 -12 -62 -13.3 l-11 -0.7 9 -3.6 c24.5 -9.9 52.1 -12.3 78.5 -6.9 5.8 1.2 21.1 5.7 34 10.2 54.8 18.7 65.1 21.7 85.5 25.4 14.6 2.6 37.3 2.4 47.8 -0.4 24.2 -6.6 36.8 -23.3 41.1 -54.2 l0.7 -4.6 8.6 2.9 c20.1 6.7 41.8 4.2 58.3 -6.8 15.1 -10 22.1 -23.8 22.1 -43.5 0 -20.2 -8.2 -36.5 -21.9 -43.2 -4 -1.9 -6.2 -2.3 -14.7 -2.3 -9.2 0.1 -10.5 0.3 -16.8 3.3 -8.2 4 -16.4 11.8 -20 19.1 -3.4 6.8 -3.7 16.3 -0.8 22.7 2.5 5.5 8.5 12 11.8 12.9 3.6 0.9 8.1 -1.2 9.8 -4.6 2.1 -3.9 1.9 -6.3 -0.9 -9.6 -3.7 -4.4 -4.8 -7.3 -4.1 -10.1 2.7 -11.3 18.1 -19.6 27.4 -14.7 10.9 5.6 16.2 27.2 9.9 40.7 -5 10.7 -14.6 17.5 -29.3 20.5 -21.8 4.4 -44.4 -7 -54.8 -27.8 -5.4 -10.9 -7.1 -18.4 -7 -31.9 0.1 -14.2 2.4 -23.6 9 -37 3.9 -7.9 6.2 -11 13.8 -18.6 7.7 -7.9 10.4 -9.8 18.5 -13.7 12.9 -6.3 24.5 -9 38.5 -9 23.2 0 40.9 8.8 50.2 25.1 l3 5.3 -2 6.7 c-1.6 5.4 -2.1 9.6 -2.1 21.7 0 13.9 0.2 15.6 2.7 23 4.3 12.1 9.2 20.2 17.2 28 8.5 8.4 15.4 12.7 27.2 16.8 8.3 3 9.6 3.2 23.8 3.2 13.9 0 15.6 -0.2 23.2 -2.8 21.7 -7.5 37 -24.9 39.7 -45.2 1.7 -12.1 -4.8 -28.9 -15 -39.1 -16.7 -16.8 -39.6 -17.6 -56.1 -2.1 -6.4 6 -9.8 11.6 -11.8 19.3 -3.7 14.2 -1 21.4 7.8 21.4 5.6 0 6.6 -1.2 8.3 -10.2 2.6 -13.7 9.3 -21.9 19 -23.4 9.3 -1.4 20.9 4.5 26 13.2 2.3 3.8 2.9 6.2 3.2 12.8 0.7 13.8 -4.7 23.7 -17.2 31.8 -25.7 16.6 -61.6 5.8 -75 -22.5 -4.2 -8.9 -5.6 -15.4 -5.6 -26 0.1 -37.2 31.8 -68.2 72.7 -71.3 46.6 -3.4 93 34.5 94.5 77.4 l0.3 7.3 -5.5 2.2 c-27.3 11.2 -45 41.5 -45 76.9 0 13.5 1.5 20.2 6.9 31.3 10 20.3 30.6 36.8 51.1 41.1 16 3.3 32.2 -2 44.5 -14.5 19.7 -20.1 20.6 -45.1 2.1 -64.8 -4.2 -4.6 -7.9 -7.3 -13.4 -10 -6.6 -3.3 -8.3 -3.7 -15.1 -3.8 -5.9 0 -8.5 0.5 -11.6 2.2 -8.3 4.4 -13.5 13 -13.8 22.9 -0.2 5 0.1 5.8 2.6 8 3.6 3.1 9.6 3.3 12.2 0.4 1 -1.1 2.2 -4.4 2.6 -7.2 1.3 -8.5 6 -10.8 14.5 -6.9 19.3 8.8 22.8 33.9 6.7 48 -6.8 6 -13.9 8.3 -24.4 7.9 -7.4 -0.3 -9.5 -0.8 -16 -4 -10.4 -5.2 -19.9 -14.9 -25.7 -26.3 -9.4 -18.6 -8.8 -40.1 1.6 -59.9 10.1 -19.3 26.6 -28.9 49.7 -28.9 25.7 0 48.3 9.7 66.2 28.6 29.1 30.6 32 79.4 7 116.9 -13.8 20.8 -31 34.2 -53.7 41.9 -9.3 3.2 -10 3.3 -29.7 3.7 -34.9 0.7 -57 -4.1 -75.1 -16.2 -7.3 -4.9 -10.3 -8.6 -13.3 -16.7 -2.6 -6.9 -4.9 -8.9 -10.5 -8.9 -5.3 0 -6.2 1.2 -9.4 12 -6.8 23.1 -21.3 40.7 -37.4 45.5 -10.5 3.1 -24.6 1.3 -35.7 -4.6 -8.9 -4.8 -21.1 -15.1 -30.5 -25.9 -5.6 -6.4 -9.4 -10 -11.1 -10.3 -3.6 -0.7 -7.8 1 -9.1 3.6 -0.6 1.2 -2.6 5.6 -4.6 9.7 -12.4 26.4 -44.3 44.1 -88.1 49 -12.2 1.3 -25.7 1.1 -33.5 -0.6z"/>
 </g>
</svg>
