<?xml version="1.0" encoding="utf-8"?>
<!DOCTYPE svg PUBLIC "-//W3C//DTD SVG 20010904//EN" "http://www.w3.org/TR/2001/REC-SVG-20010904/DTD/svg10.dtd">
<svg version="1.0" xmlns="http://www.w3.org/2000/svg" width="200px" height="200px" viewBox="0 0 200 200" preserveAspectRatio="xMidYMid meet">
 <g fill="#000000">
  <path d="M30.5 174.9 c-11.6 -4 -20.5 -11.7 -25.8 -22.4 -3.8 -7.6 -5 -13.6 -4.5 -23.3 0.3 -7.5 0.9 -9.9 4 -16.3 4.5 -9.5 11.4 -16.6 20.6 -21.1 l6.9 -3.3 0.6 -8 c1.5 -17.2 6.4 -28.4 17.6 -39.6 13.2 -13.2 27 -18.5 46.1 -17.6 12.9 0.6 20.3 3 30.6 9.9 12.2 8.2 22.2 22.6 24.7 35.8 l1.1 5.8 5.6 1.5 c8 2.3 14.7 7.1 19.1 13.9 3.3 5.2 5.9 12.8 5.9 17.4 0 0.9 2.5 3.8 5.5 6.5 3.2 3 6.5 7.3 8.2 10.7 2.5 5.1 2.8 6.8 2.8 15.7 0 11.7 -1.7 16.5 -8.6 24 -6.2 6.7 -12.7 9.7 -22 10.3 -9.2 0.5 -15.6 -1.3 -22.3 -6.4 l-4.6 -3.5 -3.8 3 c-2 1.7 -6.4 4.3 -9.7 5.8 -5.5 2.6 -7 2.8 -17.6 2.8 -11.3 0 -11.7 -0.1 -19 -3.7 -4 -2 -8.7 -5 -10.3 -6.7 l-2.9 -3 -4.1 3.4 c-5.1 4.2 -12.8 8.1 -18.6 9.4 -7.4 1.7 -18.8 1.3 -25.5 -1z m24.7 -12.3 c14 -5.8 21.7 -17.1 18 -26.7 -1.6 -4.1 -7.3 -10 -11 -11.6 -4.5 -1.9 -9.1 -0.4 -13.2 4.3 -3.8 4.4 -3.8 7.7 -0.1 11.5 2.3 2.2 3.9 2.9 7 2.9 2.3 0 4.6 0.7 5.5 1.6 1.9 1.9 2.2 10.4 0.4 12.2 -0.7 0.7 -4.3 1.2 -9.3 1.2 -10 0 -14.5 -2.3 -19 -9.4 -2.8 -4.6 -3 -5.7 -3 -14 0 -9.8 1.2 -13.4 6.4 -18.9 5.3 -5.8 9.5 -7.2 21.6 -7.2 12.9 0 16.6 1.4 23.3 9 6.6 7.5 9.5 19.9 7.4 31.3 l-0.9 5.3 4 3.4 c7.5 6.4 17.5 8.9 25.9 6.3 l4 -1.2 -5 -2.2 c-6.6 -2.9 -9.2 -7.6 -9.2 -16.8 0 -9.7 2.6 -14.7 9.5 -18.4 4.2 -2.3 18.9 -2.3 23 0 8 4.3 11.5 11.2 11.5 22.8 l0 8 4.1 3 c8.4 6.1 16.3 5 24.5 -3.4 8 -8.2 9.4 -17.6 3.8 -26.1 l-1.6 -2.5 -2 2.5 c-1.6 2.1 -2.8 2.5 -6.8 2.5 -3.9 0 -5.2 -0.4 -6.4 -2.2 -2 -2.8 -2 -7.4 -0.2 -11 0.8 -1.4 1.9 -4.2 2.6 -6.2 3.4 -10.4 -10.1 -25.5 -22.9 -25.6 -4.2 0 -5.2 -1.4 -6.7 -9 -3.5 -18.4 -15.6 -33.4 -32.4 -40 -15.5 -6.1 -33.6 -2.1 -46.8 10.4 -7 6.6 -10.6 11.9 -13.9 20.3 -2.3 5.9 -2.6 8.2 -2.5 17.5 0.1 7.3 -0.3 10.9 -1.1 11.6 -0.7 0.5 -3.5 1.7 -6.3 2.6 -10.1 3.3 -17.2 9.5 -22.5 19.6 -3.3 6.4 -3.3 17.6 0 24 5.1 9.8 12.2 16.1 21.9 19.6 5.5 2 12 1.6 18.4 -1z m80.4 -18.1 c-3.3 -6 -8.1 -7 -11 -2.1 -1.4 2.2 1.5 4.6 5.6 4.6 2.2 0 3.1 0.7 3.9 2.8 l1.1 2.7 1.1 -2.3 c0.8 -1.9 0.7 -3.1 -0.7 -5.7z"/>
 </g>
 <g fill="#ffffff">
  <path d="M39.1 167.8 c-11.1 -1.7 -21 -9.2 -26.9 -20.3 -2.4 -4.5 -2.7 -6 -2.7 -15.5 0 -9.1 0.3 -11.1 2.4 -15 5.3 -10.1 12.5 -16.3 22.5 -19.6 2.8 -0.9 5.5 -2 6.1 -2.5 0.5 -0.5 1 -5.8 1 -11.7 0.1 -9 0.6 -11.8 2.8 -17.5 8 -20.6 27 -34 48 -33.9 12.5 0.1 20.3 2.6 30.5 9.9 10.7 7.6 18 19.4 20.6 33.3 1.5 7.6 2.5 9 6.7 9 5.1 0 11.9 3.2 16.3 7.6 7.8 7.7 9.5 18.3 4.8 28.4 -1.8 3.8 -1.9 4.8 -0.8 6.5 2.7 4.1 6.3 2.9 9.5 -3.3 l1.8 -3.4 3.5 4.1 c8.3 9.7 7.9 24.3 -0.9 34.1 -9 10 -22.9 11.1 -33 2.6 -3.1 -2.6 -3.2 -2.8 -2.6 -9.5 0.7 -8.1 -0.7 -12.8 -5 -17.7 -4.2 -4.9 -8.3 -6.7 -14.7 -6.7 -13.9 0 -22.1 12.4 -15.9 24.4 3.3 6.6 12.8 10 16.9 5.9 3 -3 1.3 -6.3 -3.5 -7.1 -2.1 -0.4 -4.4 -1.5 -5.2 -2.5 -4.8 -6.6 4 -14.7 11.9 -11 4.5 2.2 6.8 6.3 6.8 12.2 0 4.5 -0.3 5.1 -5.3 10 -12.9 12.4 -33.3 12.9 -46.3 1 l-4.7 -4.2 1.3 -3.9 c1.9 -5.7 1.7 -15.1 -0.3 -21.2 -2.2 -6.2 -8.4 -13.6 -14.1 -16.6 -5.8 -3.1 -18.4 -3.1 -24.1 0 -8.5 4.5 -12.9 11.8 -12.9 21 0.1 11.6 8.2 20.2 19 20.3 5.1 0 7.4 -1.2 7.4 -3.9 0 -3 -1.9 -4.5 -5.9 -4.7 -5.3 -0.3 -8.9 -2.6 -10.8 -7.1 -4.9 -11.8 9.3 -23.3 22 -17.9 7.7 3.2 13.8 14.8 12.2 23.4 -1.6 8.8 -9.6 17.2 -19.8 21 -6.7 2.5 -11.9 3 -18.6 2z"/>
 </g>
</svg>