<?xml version="1.0" encoding="utf-8"?>
<!DOCTYPE svg PUBLIC "-//W3C//DTD SVG 20010904//EN" "http://www.w3.org/TR/2001/REC-SVG-20010904/DTD/svg10.dtd">
<svg version="1.0" xmlns="http://www.w3.org/2000/svg" width="200px" height="200px" viewBox="0 0 200 200" preserveAspectRatio="xMidYMid meet">
 <g fill="#000000">
  <path d="M125.2 155.1 c-6.7 -2.3 -11.8 -6.4 -16.1 -12.8 -3.3 -5 -3.6 -5.2 -10 -6.2 -8.1 -1.3 -14.5 -0.1 -27.5 5.4 -8.1 3.4 -9.5 3.7 -16.5 3.3 -9.6 -0.4 -15.5 -3.3 -22.2 -10.6 -12.9 -14.1 -9.3 -35.8 7.2 -44.2 2.1 -1.1 4.7 -2 5.7 -2 1.7 0 2 -1 2.4 -7.2 0.9 -12.5 8.1 -23.4 18.6 -28 5.2 -2.3 15.7 -2.8 20.4 -1 2.4 1 3.4 0.7 7.9 -2.3 11 -7.5 26.9 -8.7 38.5 -3 11.1 5.4 19.5 16.6 21 27.9 0.6 4.1 1.5 5.5 6.5 10.3 16 15.3 18.4 40.8 5.5 58.4 -8.8 11.9 -26.7 17.1 -41.4 12z m22.6 -11.2 c7 -3.5 10.4 -7.1 14.1 -14.9 5.7 -12.3 2 -26.5 -9.8 -37.2 -5.4 -4.9 -5.9 -5.7 -6.9 -11.5 -1.9 -10.9 -7.3 -18.9 -16.2 -23.7 -7.2 -3.9 -14.2 -4.4 -20.8 -1.6 -2.9 1.3 -5.1 2.6 -4.9 2.9 4.2 7.7 4.9 10.6 4.5 19 -0.5 9.2 -1.8 12.8 -6.4 17.5 -5.1 5 -8.2 6.1 -17.4 6.1 l-8.6 0 0.4 6.1 c1 15.1 -6.3 23.4 -20.5 23.4 -12 0 -18.2 -5.4 -18.4 -15.9 -0.1 -5.1 -0.2 -5.3 -1.1 -2.7 -3.1 8.4 10.2 23.6 20.6 23.6 1.6 0 7.1 -1.8 12.2 -4 10.3 -4.4 21.9 -6.6 29.1 -5.5 l4.3 0.6 0 -4.8 c0 -9.1 7 -19.3 15.6 -22.9 5.1 -2.2 19.9 -1.8 25.2 0.6 8.5 3.9 12.2 10.3 12.2 21.4 -0.1 15.8 -8.1 22.9 -24.1 21.4 -8.1 -0.8 -13.4 -5.9 -14.8 -14.4 -0.8 -4.7 -0.9 -4.7 -1 -1.1 -0.2 7.2 5.5 14.8 13.9 18.6 6.4 2.9 11.6 2.7 18.8 -1z m-7.2 -20 c1.7 -3.4 1.8 -4.7 0.2 -3.1 -0.7 0.7 -3.1 1.2 -5.5 1.2 -5.3 0 -6.8 2.3 -3.4 5.1 1.8 1.5 2.6 1.6 4.7 0.7 1.4 -0.7 3.2 -2.4 4 -3.9z m-79.3 -12.6 c1.7 -2.9 1.6 -3.1 -0.5 -6.3 -1.3 -1.8 -3.3 -4 -4.5 -4.8 -2.3 -1.4 -2.3 -1.4 -2.3 3.4 0 3.4 -0.6 5.4 -2.1 7 l-2 2.2 2.7 2.1 c2.4 1.9 3 2 4.8 0.8 1.2 -0.8 2.9 -2.8 3.9 -4.4z m29.3 -27.9 c1.9 -1.9 3.4 -3.9 3.4 -4.2 0 -0.4 -2 -0.6 -4.6 -0.4 -3.3 0.3 -5 -0.1 -6.4 -1.3 -2.2 -2 -4.4 -1.5 -6 1.5 -0.9 1.7 -0.6 2.5 1.9 5 4.1 4.1 7.5 3.9 11.7 -0.6z m-27.6 -3.6 c0 -4.8 0.6 -7.1 2.6 -10.7 l2.7 -4.6 -2.6 2.4 c-5.5 5 -9.7 17.1 -6.4 18.4 3.2 1.4 3.7 0.7 3.7 -5.5z m18.9 -18.4 c0.9 -0.8 -7.5 -0.3 -8.8 0.5 -0.8 0.5 0.5 0.7 3.5 0.4 2.7 -0.3 5.1 -0.7 5.3 -0.9z"/>
 </g>
 <g fill="#ffffff">
  <path d="M126 147.9 c-12.6 -5.7 -17.9 -19.3 -12.1 -31.3 7.3 -14.9 31.1 -12.2 31.1 3.6 0 7.3 -4.2 11.8 -11 11.8 -3.7 0 -8 -3.9 -8 -7.3 0 -4.1 2.4 -6.2 7.1 -6.2 2.9 0 4.5 -0.5 5.3 -1.7 2.8 -4.6 -7.8 -7.2 -13.6 -3.4 -3.4 2.3 -6.1 9 -5.3 13.3 0.8 4.4 5.7 9.9 10.1 11.3 17.3 5.8 29.9 -17.4 17 -31.3 -5.6 -6.1 -18.1 -8.6 -26 -5.3 -8.8 3.7 -15.6 13.8 -15.6 23.3 l0 5.2 -3.7 -0.5 c-2.1 -0.3 -4.6 -0.7 -5.6 -0.9 -4.2 -0.8 -15.4 1.8 -24.4 5.6 -14.6 6.3 -22.1 5.6 -31.3 -2.8 -11 -9.8 -10.6 -25.7 0.8 -33.7 7.6 -5.4 17.7 -3.4 22.9 4.4 6.9 10.2 -4.7 23.3 -14.1 15.9 -3.3 -2.6 -3.6 -7.7 -0.6 -10.4 3.8 -3.4 2.1 -7.2 -2.6 -6.1 -5.9 1.5 -8.4 12.4 -4.1 18.6 7.8 11.6 24.8 8.2 29.5 -5.9 1.7 -5 1.5 -8 -1.2 -13.7 -2.5 -5.4 -7.1 -9.6 -12.5 -11.5 l-3.3 -1.2 0.4 -6.7 c1 -18.7 20.3 -29.6 34.8 -19.8 5.8 4 7.5 7.2 7.5 14.2 0 5.3 -0.4 6.8 -2.8 9.9 -3.1 4.1 -8.9 6.4 -13.2 5.3 -7.6 -1.9 -11.1 -11.1 -6 -16.1 3 -3.1 6.4 -3.2 9.9 -0.4 4.4 3.5 8.7 -0.2 5 -4.2 -6.6 -7.3 -16.9 -6.1 -21.9 2.6 -4.7 7.9 -2 17.4 6.3 22.2 12.5 7.3 27.8 -0.9 29.8 -16.1 0.9 -6.4 -0.2 -10.8 -4.1 -16.7 -1.9 -2.8 -3.5 -5.3 -3.5 -5.6 0 -0.2 3 -1.8 6.6 -3.5 6 -2.8 7.2 -3 14.7 -2.6 6.7 0.3 9.2 1 13.5 3.3 9.1 4.9 14.5 12.8 16.4 23.8 1 5.8 1.5 6.6 6.9 11.5 4 3.6 6.9 7.4 9.1 12 3 6.1 3.3 7.4 3.3 16.2 0 8.1 -0.4 10.3 -2.6 15 -3.7 7.8 -7.1 11.4 -14.1 14.9 -7.7 3.9 -17.6 4.3 -24.8 1z"/>
 </g>
</svg>